<?xml version="1.0" encoding="iso-8859-1"?>
<!-- Uploaded to: SVG Repo, www.svgrepo.com, Generator: SVG Repo Mixer Tools -->
<!DOCTYPE svg PUBLIC "-//W3C//DTD SVG 1.1//EN" "http://www.w3.org/Graphics/SVG/1.1/DTD/svg11.dtd">
<svg fill="#000000" height="800px" width="800px" version="1.1" id="Capa_1" xmlns="http://www.w3.org/2000/svg" xmlns:xlink="http://www.w3.org/1999/xlink" 
	 viewBox="0 0 297 297" xml:space="preserve">
<path d="M205.645,18.458h-58.916c-48.305,0-87.973,37.685-91.15,85.198L5.341,130.383c-4.08,2.171-6.159,6.84-5.041,11.324
	c1.119,4.484,5.147,7.631,9.769,7.631H113.45c8.686,0,15.753,7.067,15.753,15.753v19.484h-26.847
	c-25.907,0-46.983,21.076-46.983,46.983c0,25.906,21.076,46.982,46.983,46.982h103.288c50.373,0,91.355-40.982,91.355-91.355
	v-77.373C297,59.44,256.018,18.458,205.645,18.458z M113.391,242.593c-2.91,2.91-6.927,4.571-11.034,4.571
	c-4.108,0-8.125-1.661-11.034-4.571c-2.91-2.899-4.571-6.926-4.571-11.034s1.661-8.124,4.571-11.034
	c2.909-2.909,6.926-4.571,11.034-4.571c4.108,0,8.124,1.662,11.034,4.571c2.909,2.91,4.571,6.926,4.571,11.034
	S116.3,239.684,113.391,242.593z"/>
</svg>